# xmcd CD database file
#
# Track frame offsets:
#	150
#	16579
#	33354
#	47021
#	66601
#	86335
#
# Disc length: 1370 seconds
#
# Revision: 1
# Processed by: cddbd v1.5.1PL2 Copyright (c) Steve Scherf et al.
# Submitted via: CDex 1.51
#
DISCID=41055806
DTITLE=TNT - Taste
DYEAR=2003
DGENRE=Hard Rock
TTITLE0=Live Today
TTITLE1=Hey Love
TTITLE2=Satellite
TTITLE3=Give Me A Sign
TTITLE4=Magic Little Nightmare
TTITLE5=Destiny
EXTD=YEAR: 2003
EXTT0=
EXTT1=
EXTT2=
EXTT3=
EXTT4=
EXTT5=
PLAYORDER=
